<?xml version="1.0" encoding="utf-8"?>
<!-- Generator: Adobe Illustrator 17.0.0, SVG Export Plug-In . SVG Version: 6.00 Build 0)  -->
<!DOCTYPE svg PUBLIC "-//W3C//DTD SVG 1.1//EN" "http://www.w3.org/Graphics/SVG/1.1/DTD/svg11.dtd">
<svg version="1.1" id="Layer_1" xmlns="http://www.w3.org/2000/svg" xmlns:xlink="http://www.w3.org/1999/xlink" x="0px" y="0px"
	 width="635.26px" height="1381.97px" viewBox="0 0 635.26 1381.97" enable-background="new 0 0 635.26 1381.97"
	 xml:space="preserve">
<g>
	<path fill-rule="evenodd" clip-rule="evenodd" d="M525.432,31.398C462.929,11.738,385.767,0,319.024,0
		C210.127,0,62.007,31.565,15.076,78.553C5.06,88.582-0.013,99.019,0,109.575V1341.98c0.028,22.966,28.075,39.99,60.655,39.99
		h515.468c19.212,0,37.313-6.639,48.42-17.758c7.021-7.029,10.727-15.294,10.717-23.901l4.252-1230.341
		C639.466,71.588,565.862,44.116,525.432,31.398z M626.756,1340.321c0.007,6.301-2.839,12.484-8.229,17.882
		c-9.547,9.558-25.398,15.264-42.403,15.264H60.655c-27.424,0-52.129-13.524-52.151-31.496V109.564
		c-0.01-8.216,4.226-16.628,12.589-25.001c20.456-20.481,64.362-39.791,123.629-54.372C200.747,16.409,264.277,8.504,319.024,8.504
		c64.94,0,143.054,11.881,203.855,31.006c65.021,20.453,108.099,46.395,108.128,70.47L626.756,1340.321z"/>
	<path fill-rule="evenodd" clip-rule="evenodd" d="M317.63,927.132c-48.679,0-92.75,19.732-124.652,51.633
		c-31.901,31.901-51.633,75.973-51.633,124.651s19.731,92.751,51.633,124.652c31.901,31.901,75.973,51.633,124.652,51.633
		c48.679,0,92.75-19.731,124.651-51.633c31.901-31.901,51.633-75.973,51.633-124.652s-19.732-92.75-51.633-124.651
		C410.38,946.864,366.309,927.132,317.63,927.132z M438.985,1224.772c-31.057,31.057-73.963,50.267-121.355,50.267
		c-47.392,0-90.299-19.21-121.355-50.267c-31.057-31.057-50.266-73.963-50.266-121.355c0-47.392,19.21-90.298,50.266-121.355
		c31.057-31.057,73.963-50.267,121.355-50.267c47.392,0,90.298,19.21,121.355,50.267c31.057,31.057,50.267,73.963,50.267,121.355
		C489.252,1150.809,470.042,1193.715,438.985,1224.772z"/>
	<circle fill-rule="evenodd" clip-rule="evenodd" cx="236.667" cy="1103.417" r="22.829"/>
	<circle fill-rule="evenodd" clip-rule="evenodd" cx="398.593" cy="1103.417" r="22.829"/>
</g>
<g>
	<path d="M560.163,651.719H450.39v-343.7h109.773V651.719z M453.224,648.885h104.105v-338.03H453.224V648.885z"/>
</g>
<g>
	<path d="M543.51,407.505v-16.403h-54.421v16.403H543.51z M544.928,390.393v17.82v0.709h-0.709H488.38h-0.709v-0.709v-17.82v-0.709
		h0.709h55.839h0.709V390.393z"/>
</g>
<g>
	<path d="M543.51,439.632v-16.403h-54.421v16.403H543.51z M544.928,422.521v17.82v0.709h-0.709H488.38h-0.709v-0.709v-17.82v-0.709
		h0.709h55.839h0.709V422.521z"/>
</g>
<g>
	<path d="M543.51,471.76v-16.403h-54.421v16.403H543.51z M544.928,454.648v17.82v0.709h-0.709H488.38h-0.709v-0.709v-17.82v-0.709
		h0.709h55.839h0.709V454.648z"/>
</g>
<g>
	<path d="M543.51,343.25v-16.403h-54.421v16.403H543.51z M544.928,326.139v17.82v0.709h-0.709H488.38h-0.709v-0.709v-17.82v-0.708
		h0.709h55.839h0.709V326.139z"/>
</g>
<g>
	<path d="M543.51,375.378v-16.403h-54.421v16.403H543.51z M544.928,358.266v17.82v0.709h-0.709H488.38h-0.709v-0.709v-17.82v-0.709
		h0.709h55.839h0.709V358.266z"/>
</g>
<g>
	<path d="M462.441,337.724v-1.773h11.303c-0.408-0.428-0.814-0.987-1.223-1.681c-0.406-0.692-0.713-1.315-0.916-1.867h1.715
		c0.467,0.992,1.031,1.859,1.695,2.602c0.663,0.742,1.307,1.268,1.931,1.577v1.143H462.441z"/>
</g>
<g>
	<path d="M464.146,371.974h-1.705v-9.548c0.427-0.014,0.838,0.056,1.232,0.207c0.65,0.242,1.29,0.632,1.921,1.167
		s1.36,1.31,2.188,2.321c1.288,1.569,2.308,2.631,3.06,3.183s1.463,0.827,2.133,0.827c0.703,0,1.297-0.251,1.779-0.754
		c0.482-0.502,0.725-1.157,0.725-1.966c0-0.854-0.256-1.537-0.77-2.049c-0.512-0.513-1.221-0.772-2.128-0.779l0.188-1.822
		c1.36,0.124,2.396,0.594,3.108,1.409c0.713,0.814,1.069,1.908,1.069,3.281c0,1.386-0.384,2.483-1.153,3.291
		c-0.768,0.808-1.721,1.212-2.857,1.212c-0.578,0-1.146-0.118-1.705-0.354c-0.558-0.236-1.146-0.629-1.764-1.178
		c-0.617-0.549-1.465-1.46-2.542-2.734c-0.894-1.064-1.499-1.748-1.817-2.05c-0.319-0.302-0.64-0.552-0.961-0.749V371.974z"/>
</g>
<g>
	<path d="M466.498,394.571l0.236,1.773c-1.006,0.204-1.729,0.55-2.174,1.04c-0.443,0.489-0.664,1.085-0.664,1.788
		c0,0.834,0.289,1.539,0.867,2.113c0.578,0.575,1.294,0.862,2.148,0.862c0.814,0,1.486-0.266,2.015-0.798s0.793-1.209,0.793-2.03
		c0-0.335-0.065-0.752-0.196-1.251l1.557,0.197c-0.014,0.118-0.02,0.213-0.02,0.285c0,0.756,0.196,1.436,0.591,2.04
		c0.394,0.604,1.001,0.906,1.823,0.906c0.65,0,1.188-0.22,1.615-0.66c0.428-0.439,0.641-1.008,0.641-1.704
		c0-0.69-0.217-1.265-0.65-1.725s-1.084-0.756-1.951-0.887l0.316-1.774c1.188,0.217,2.109,0.71,2.764,1.479
		c0.653,0.769,0.98,1.725,0.98,2.867c0,0.789-0.17,1.515-0.508,2.178c-0.338,0.664-0.8,1.171-1.385,1.522
		c-0.584,0.352-1.205,0.527-1.862,0.527c-0.624,0-1.192-0.167-1.704-0.502c-0.513-0.336-0.92-0.832-1.223-1.488
		c-0.197,0.854-0.605,1.518-1.227,1.99s-1.397,0.71-2.33,0.71c-1.262,0-2.33-0.46-3.208-1.38c-0.877-0.92-1.315-2.083-1.315-3.488
		c0-1.268,0.378-2.32,1.133-3.158C464.316,395.167,465.295,394.689,466.498,394.571z"/>
</g>
<g>
	<path d="M462.744,432.707h3.459v-6.268h1.625l9.361,6.593v1.448h-9.361v1.951h-1.625v-1.951h-3.459V432.707z M467.828,432.707
		h6.514l-6.514-4.523V432.707z"/>
</g>
<g>
	<path d="M466.528,459.149l0.157,1.862c-0.906,0.138-1.588,0.458-2.045,0.961c-0.456,0.502-0.685,1.108-0.685,1.817
		c0,0.854,0.321,1.577,0.966,2.168c0.644,0.592,1.498,0.887,2.563,0.887c1.012,0,1.809-0.284,2.395-0.852
		c0.584-0.568,0.877-1.313,0.877-2.232c0-0.571-0.131-1.087-0.39-1.547c-0.26-0.46-0.597-0.821-1.011-1.084l0.217-1.665l7.421,1.398
		v7.184h-1.694v-5.765l-3.883-0.778c0.604,0.867,0.906,1.777,0.906,2.729c0,1.262-0.438,2.326-1.311,3.193
		c-0.874,0.867-1.997,1.301-3.37,1.301c-1.308,0-2.438-0.382-3.39-1.144c-1.17-0.926-1.754-2.19-1.754-3.794
		c0-1.313,0.367-2.386,1.104-3.217C464.337,459.741,465.312,459.267,466.528,459.149z"/>
</g>
<g>
	<path d="M543.51,568.141v-16.403h-54.421v16.403H543.51z M544.928,551.03v17.82v0.709h-0.709H488.38h-0.709v-0.709v-17.82v-0.709
		h0.709h55.839h0.709V551.03z"/>
</g>
<g>
	<path d="M543.51,600.269v-16.403h-54.421v16.403H543.51z M544.928,583.157v17.82v0.709h-0.709H488.38h-0.709v-0.709v-17.82v-0.709
		h0.709h55.839h0.709V583.157z"/>
</g>
<g>
	<path d="M543.51,632.396v-16.403h-54.421v16.403H543.51z M544.928,615.284v17.82v0.709h-0.709H488.38h-0.709v-0.709v-17.82v-0.709
		h0.709h55.839h0.709V615.284z"/>
</g>
<g>
	<path d="M543.51,503.887v-16.403h-54.421v16.403H543.51z M544.928,486.775v17.82v0.709h-0.709H488.38h-0.709v-0.709v-17.82v-0.709
		h0.709h55.839h0.709V486.775z"/>
</g>
<g>
	<path d="M543.51,536.014v-16.403h-54.421v16.403H543.51z M544.928,518.903v17.82v0.709h-0.709H488.38h-0.709v-0.709v-17.82v-0.709
		h0.709h55.839h0.709V518.903z"/>
</g>
<g>
	<path d="M473.834,500.498l-0.138-1.764c0.696-0.157,1.202-0.381,1.518-0.67c0.506-0.479,0.759-1.071,0.759-1.773
		c0-0.565-0.158-1.062-0.473-1.488c-0.408-0.559-1.002-0.999-1.784-1.32c-0.782-0.322-1.896-0.489-3.341-0.503
		c0.65,0.427,1.134,0.949,1.449,1.567c0.314,0.617,0.473,1.264,0.473,1.94c0,1.183-0.436,2.189-1.306,3.021
		s-1.995,1.247-3.375,1.247c-0.906,0-1.749-0.196-2.527-0.587s-1.375-0.928-1.788-1.611c-0.414-0.683-0.621-1.458-0.621-2.325
		c0-1.479,0.543-2.684,1.631-3.616c1.087-0.933,2.879-1.399,5.375-1.399c2.792,0,4.822,0.516,6.09,1.547
		c1.104,0.9,1.655,2.112,1.655,3.637c0,1.136-0.318,2.067-0.956,2.793C475.838,499.918,474.957,500.353,473.834,500.498z
		 M467.606,493.256c-0.61,0-1.196,0.129-1.754,0.389c-0.559,0.26-0.983,0.623-1.276,1.089c-0.292,0.467-0.438,0.956-0.438,1.469
		c0,0.749,0.302,1.393,0.907,1.931c0.604,0.539,1.425,0.809,2.463,0.809c0.998,0,1.785-0.267,2.36-0.798
		c0.575-0.532,0.862-1.202,0.862-2.011c0-0.802-0.287-1.481-0.862-2.04C469.293,493.535,468.539,493.256,467.606,493.256z"/>
</g>
<g>
	<path d="M475.48,523.87h1.704v9.352h-1.38c-0.979-0.92-2.279-1.832-3.902-2.734c-1.622-0.903-3.291-1.602-5.006-2.095
		c-1.209-0.354-2.532-0.581-3.971-0.68v-1.823c1.137,0.021,2.51,0.243,4.119,0.67c1.609,0.428,3.161,1.04,4.656,1.838
		c1.494,0.799,2.754,1.647,3.779,2.548V523.87z"/>
</g>
<g>
	<path d="M470.761,557.952c0.269-0.736,0.653-1.281,1.153-1.636c0.498-0.355,1.097-0.532,1.793-0.532
		c1.051,0,1.935,0.378,2.65,1.133c0.717,0.756,1.074,1.761,1.074,3.016c0,1.262-0.366,2.276-1.099,3.045s-1.624,1.153-2.675,1.153
		c-0.67,0-1.254-0.177-1.75-0.527c-0.496-0.352-0.879-0.886-1.147-1.602c-0.289,0.887-0.755,1.562-1.399,2.025
		c-0.645,0.463-1.412,0.694-2.306,0.694c-1.235,0-2.272-0.438-3.114-1.311c-0.841-0.874-1.262-2.023-1.262-3.449
		s0.423-2.575,1.268-3.448c0.844-0.874,1.896-1.311,3.158-1.311c0.939,0,1.726,0.237,2.359,0.714S470.531,557.072,470.761,557.952z
		 M467.096,557.026c-0.507,0-0.996,0.12-1.469,0.36c-0.473,0.239-0.84,0.596-1.1,1.068c-0.259,0.474-0.389,0.982-0.389,1.527
		c0,0.848,0.272,1.548,0.818,2.1c0.545,0.552,1.238,0.827,2.078,0.827c0.854,0,1.561-0.284,2.119-0.853
		c0.559-0.567,0.838-1.279,0.838-2.133c0-0.835-0.275-1.526-0.828-2.074C468.612,557.3,467.923,557.026,467.096,557.026z
		 M473.766,557.598c-0.683,0-1.241,0.22-1.675,0.66c-0.434,0.439-0.65,1.011-0.65,1.714c0,0.684,0.216,1.243,0.646,1.681
		c0.43,0.437,0.957,0.655,1.582,0.655c0.65,0,1.197-0.226,1.641-0.675c0.443-0.45,0.665-1.011,0.665-1.681
		c0-0.677-0.217-1.238-0.65-1.685C474.89,557.821,474.371,557.598,473.766,557.598z"/>
</g>
<g>
	<path d="M466.266,587.318l0.157,1.705c-0.802,0.145-1.383,0.42-1.744,0.827s-0.542,0.93-0.542,1.567
		c0,0.545,0.125,1.022,0.375,1.434c0.249,0.41,0.582,0.747,1,1.01c0.417,0.263,0.98,0.483,1.689,0.66
		c0.71,0.178,1.432,0.267,2.168,0.267c0.079,0,0.197-0.004,0.355-0.01c-0.565-0.355-1.023-0.84-1.375-1.454
		s-0.527-1.279-0.527-1.995c0-1.195,0.434-2.207,1.301-3.035s2.01-1.241,3.43-1.241c1.465,0,2.644,0.432,3.537,1.296
		c0.893,0.863,1.34,1.945,1.34,3.246c0,0.939-0.253,1.799-0.759,2.577s-1.227,1.37-2.163,1.773
		c-0.936,0.404-2.291,0.606-4.064,0.606c-1.846,0-3.316-0.2-4.41-0.602c-1.094-0.4-1.926-0.996-2.498-1.788
		c-0.57-0.792-0.857-1.72-0.857-2.784c0-1.13,0.314-2.053,0.941-2.769S465.129,587.463,466.266,587.318z M472.641,594.581
		c1.019,0,1.826-0.271,2.424-0.813s0.896-1.193,0.896-1.956c0-0.788-0.321-1.475-0.965-2.06c-0.645-0.584-1.479-0.877-2.503-0.877
		c-0.92,0-1.667,0.278-2.241,0.833c-0.576,0.555-0.863,1.24-0.863,2.055c0,0.821,0.287,1.496,0.863,2.025
		C470.826,594.316,471.623,594.581,472.641,594.581z"/>
</g>
<g>
	<path d="M462.744,620.854v-1.773h11.303c-0.408-0.428-0.815-0.987-1.223-1.681c-0.407-0.692-0.713-1.315-0.916-1.867h1.715
		c0.466,0.992,1.031,1.859,1.694,2.602s1.308,1.268,1.931,1.577v1.143H462.744z"/>
	<path d="M469.868,625.397c1.708,0,3.083,0.176,4.124,0.527c1.041,0.351,1.844,0.873,2.409,1.566s0.847,1.565,0.847,2.616
		c0,0.775-0.155,1.455-0.467,2.04c-0.313,0.584-0.763,1.067-1.351,1.448s-1.304,0.68-2.147,0.896
		c-0.845,0.217-1.982,0.325-3.415,0.325c-1.694,0-3.063-0.174-4.104-0.522c-1.041-0.348-1.846-0.868-2.414-1.562
		s-0.853-1.568-0.853-2.626c0-1.393,0.499-2.486,1.498-3.281C465.197,625.873,467.154,625.397,469.868,625.397z M469.868,627.219
		c-2.372,0-3.95,0.278-4.735,0.833s-1.178,1.24-1.178,2.055s0.395,1.499,1.184,2.055c0.787,0.555,2.364,0.832,4.729,0.832
		c2.378,0,3.958-0.277,4.739-0.832c0.782-0.556,1.173-1.247,1.173-2.074c0-0.814-0.345-1.465-1.034-1.951
		C473.865,627.525,472.24,627.219,469.868,627.219z"/>
</g>
<g>
	<path d="M544.434,743.213H430.358c-24.617,0-44.646-20.028-44.646-44.646V261.172c0-24.618,20.028-44.646,44.646-44.646h114.075
		c24.617,0,44.646,20.028,44.646,44.646v437.396C589.079,723.185,569.051,743.213,544.434,743.213z M430.358,220.778
		c-22.273,0-40.394,18.121-40.394,40.394v437.396c0,22.273,18.12,40.394,40.394,40.394h114.075c22.273,0,40.394-18.12,40.394-40.394
		V261.172c0-22.273-18.12-40.394-40.394-40.394H430.358z"/>
</g>
<g>
	<rect x="527.107" y="326.848" fill-rule="evenodd" clip-rule="evenodd" fill="#000000" width="16.403" height="16.403"/>
</g>
<g>
	<rect x="527.107" y="358.975" fill-rule="evenodd" clip-rule="evenodd" fill="#000000" width="16.403" height="16.403"/>
</g>
<g>
	<rect x="527.107" y="391.102" fill-rule="evenodd" clip-rule="evenodd" fill="#000000" width="16.403" height="16.403"/>
</g>
<g>
	<rect x="527.107" y="423.229" fill-rule="evenodd" clip-rule="evenodd" fill="#000000" width="16.403" height="16.403"/>
</g>
<g>
	<rect x="527.107" y="455.357" fill-rule="evenodd" clip-rule="evenodd" fill="#000000" width="16.403" height="16.403"/>
</g>
<g>
	<rect x="527.107" y="487.484" fill-rule="evenodd" clip-rule="evenodd" fill="#000000" width="16.403" height="16.403"/>
</g>
<g>
	<rect x="527.107" y="519.611" fill-rule="evenodd" clip-rule="evenodd" fill="#000000" width="16.403" height="16.403"/>
</g>
<g>
	<rect x="527.107" y="551.739" fill-rule="evenodd" clip-rule="evenodd" fill="#000000" width="16.403" height="16.403"/>
</g>
<g>
	<rect x="527.107" y="583.866" fill-rule="evenodd" clip-rule="evenodd" fill="#000000" width="16.403" height="16.403"/>
</g>
<g>
	<rect x="527.107" y="615.993" fill-rule="evenodd" clip-rule="evenodd" fill="#000000" width="16.403" height="16.403"/>
</g>
</svg>
