<?xml version="1.0" encoding="utf-8"?>
<!-- Generator: Adobe Illustrator 17.0.0, SVG Export Plug-In . SVG Version: 6.00 Build 0)  -->
<!DOCTYPE svg PUBLIC "-//W3C//DTD SVG 1.1//EN" "http://www.w3.org/Graphics/SVG/1.1/DTD/svg11.dtd">
<svg version="1.1" id="Layer_1" xmlns="http://www.w3.org/2000/svg" xmlns:xlink="http://www.w3.org/1999/xlink" x="0px" y="0px"
	 width="118.173px" height="406.66px" viewBox="0 0 118.173 406.66" enable-background="new 0 0 118.173 406.66"
	 xml:space="preserve">
<g>
	<path fill-rule="evenodd" clip-rule="evenodd" fill="#000000" d="M55.695,43.904c0-0.832,0.307-1.679,0.992-2.363h0.001
		c0.663-0.661,1.532-0.992,2.4-0.992c0.868-0.001,1.737,0.33,2.396,0.989h0.001c0.662,0.662,0.993,1.53,0.993,2.399
		c0,0.868-0.331,1.736-0.993,2.398l0,0c-0.311,0.312-0.683,0.564-1.098,0.736h0c-0.4,0.166-0.839,0.257-1.298,0.257
		c-0.972,0-1.788-0.382-2.376-0.969l-0.001-0.001c-0.322-0.322-0.577-0.708-0.75-1.127C55.787,44.812,55.695,44.359,55.695,43.904"
		/>
</g>
<g>
	<path d="M59.396,0C34.495,0,0,11.801,0,33.957v350.749c0,12.105,8.234,21.955,18.354,21.955h81.464
		c10.12,0,18.354-9.85,18.354-21.955V33.957C118.173,10.535,83.802,0,59.396,0z M59.396,2.126c22.847,0,56.65,10.117,56.65,31.831
		v272.031h-12.542v-12.782V33.957c0-1.046-0.19-2.01-0.581-2.946c-3.843-9.206-23.259-13.796-25.46-14.289
		c-5.99-1.343-12.237-2.052-18.067-2.052c-5.995,0-12.539,0.833-18.922,2.409c-0.258,0.063-25.804,6.655-25.804,16.879v259.249
		v12.782H2.126V33.957C2.126,13.461,35.989,2.126,59.396,2.126z M15.803,307.122h86.566v77.583c0,1.629-1.269,6.151-2.551,6.151
		H18.354c-1.282,0-2.551-4.522-2.551-6.151V307.122z M15.803,305.988v-8.029c0.602,1.395,1.448,2.533,2.551,2.533h81.464
		c1.102,0,1.949-1.137,2.551-2.532v8.028H15.803z M56.796,15.859c0.876-0.034,1.744-0.056,2.599-0.056
		c5.748,0,11.909,0.7,17.819,2.025c7.775,1.742,21.719,6.57,24.661,13.619c0.332,0.796,0.493,1.617,0.493,2.51v259.249
		c0,1.629-1.269,6.151-2.551,6.151H18.354c-1.282,0-2.551-4.522-2.551-6.151V33.957c0-7.854,18.471-14.181,24.941-15.778
		C46.13,16.85,51.624,16.061,56.796,15.859z M99.818,404.534H18.354c-8.948,0-16.229-8.895-16.229-19.828v-77.583h12.543v77.583
		c0,1.441,1.185,7.286,3.685,7.286h81.464c2.5,0,3.686-5.845,3.686-7.286v-77.583h12.542v77.583
		C116.046,395.639,108.767,404.534,99.818,404.534z"/>
	<path d="M55.957,47.067c0.801,0.801,1.907,1.297,3.129,1.297c1.221,0,2.327-0.495,3.128-1.297l0.001-0.001l0.001,0
		c0.801-0.801,1.297-1.908,1.297-3.128c0-1.222-0.496-2.329-1.297-3.13l-0.001,0.001c-0.801-0.801-1.908-1.297-3.129-1.297
		c-1.222,0-2.329,0.496-3.129,1.297c-0.801,0.801-1.297,1.907-1.297,3.13C54.66,45.158,55.156,46.265,55.957,47.067L55.957,47.067z
		 M55.227,43.937c0-1.065,0.432-2.031,1.13-2.729c0.698-0.698,1.663-1.13,2.729-1.13c1.066,0,2.031,0.432,2.729,1.129v0.001
		c0.698,0.698,1.13,1.663,1.13,2.729c0,1.066-0.432,2.031-1.129,2.729l-0.001,0.001c-0.697,0.698-1.663,1.129-2.729,1.129
		c-1.065,0-2.03-0.432-2.729-1.13h-0.001C55.659,45.969,55.227,45.003,55.227,43.937z"/>
	<path d="M29.299,71.121h3.68l1.027,2.666h1.291h0.036h1.201l0.967-2.666h3.68l1.027,2.666h1.327l-3.602-8.802h-1.255l-3.363,8.756
		l-3.583-8.756h-1.255l-3.38,8.802h1.237L29.299,71.121z M38.803,67.591c0.204-0.557,0.362-1.117,0.474-1.681
		c0.136,0.476,0.344,1.084,0.625,1.825l0.918,2.438h-2.984L38.803,67.591z M30.602,67.591c0.204-0.557,0.362-1.117,0.474-1.681
		c0.136,0.476,0.344,1.084,0.625,1.825l0.918,2.438h-2.984L30.602,67.591z"/>
	<polygon points="45.569,66.87 50.192,73.786 51.387,73.786 51.387,64.985 50.271,64.985 50.271,71.895 45.647,64.985
		44.453,64.985 44.453,73.786 45.569,73.786 	"/>
	<path d="M68.517,73.51c0.524,0.284,1.198,0.426,2.023,0.426c0.849,0,1.533-0.163,2.056-0.489s0.884-0.75,1.084-1.27
		c0.2-0.521,0.3-1.223,0.3-2.107v-5.085h-1.164v5.079c0,1.105-0.183,1.852-0.547,2.24s-0.975,0.583-1.831,0.583
		c-0.5,0-0.924-0.098-1.27-0.294c-0.347-0.196-0.591-0.475-0.732-0.837c-0.143-0.362-0.213-0.926-0.213-1.69v-5.079h-1.165v5.085
		c0,0.933,0.112,1.668,0.336,2.207C67.618,72.815,67.992,73.226,68.517,73.51z"/>
	<rect x="76.117" y="64.985" width="1.165" height="8.802"/>
	<polygon points="81.575,73.786 82.739,73.786 82.739,66.023 85.651,66.023 85.651,64.985 78.675,64.985 78.675,66.023
		81.575,66.023 	"/>
	<polygon points="58.519,71.435 53.718,69.446 58.519,67.475 58.519,66.36 52.465,68.916 52.465,69.963 58.519,72.551 	"/>
	<polygon points="59.922,67.475 64.717,69.446 59.922,71.435 59.922,72.551 65.976,69.963 65.976,68.916 59.922,66.36 	"/>
	<path d="M57.372,91.236H39.489c-3.712,0-6.732,3.02-6.732,6.732v12.185c0,3.712,3.02,6.732,6.732,6.732h17.883h3.429h17.883
		c3.712,0,6.732-3.02,6.732-6.732V97.968c0-3.712-3.021-6.732-6.732-6.732H60.801H57.372z M39.489,115.893
		c-3.165,0-5.74-2.575-5.74-5.74V97.968c0-3.166,2.575-5.74,5.74-5.74h17.883v23.665H39.489z M58.364,115.893V92.228h1.445v23.665
		H58.364z M78.684,92.228c3.165,0,5.74,2.575,5.74,5.74v12.185c0,3.166-2.575,5.74-5.74,5.74H60.801V92.228H78.684z"/>
	<path d="M60.918,87.058l1.064,2.768h1.379l-3.741-9.14h-1.303l-3.51,9.14h1.284l1.004-2.768H60.918z M58.448,83.392
		c0.212-0.578,0.376-1.16,0.493-1.746c0.141,0.495,0.357,1.126,0.648,1.896l0.954,2.531h-3.099L58.448,83.392z"/>
	<path d="M78.684,132.861H60.801h-3.429H39.489c-3.712,0-6.732,3.02-6.732,6.732v12.185c0,3.712,3.02,6.732,6.732,6.732h17.883
		h3.429h17.883c3.712,0,6.732-3.02,6.732-6.732v-12.185C85.416,135.881,82.396,132.861,78.684,132.861z M39.489,157.518
		c-3.165,0-5.74-2.575-5.74-5.74v-12.185c0-3.166,2.575-5.74,5.74-5.74h17.883v23.665H39.489z M58.364,157.518v-23.665h1.445v23.665
		H58.364z M84.424,151.778c0,3.166-2.575,5.74-5.74,5.74H60.801v-23.665h17.883c3.165,0,5.74,2.575,5.74,5.74V151.778z"/>
	<path d="M61.902,125.753c0.211-0.345,0.318-0.713,0.318-1.104c0-0.42-0.119-0.822-0.359-1.207c-0.238-0.384-0.568-0.669-0.99-0.854
		c-0.423-0.185-0.983-0.277-1.681-0.277h-3.429v9.14h3.485c0.582,0,1.073-0.051,1.475-0.153c0.4-0.102,0.734-0.252,1-0.452
		c0.268-0.199,0.49-0.483,0.672-0.851c0.18-0.368,0.27-0.766,0.27-1.194c0-0.532-0.148-0.993-0.445-1.384
		c-0.297-0.391-0.723-0.667-1.275-0.829C61.371,126.376,61.689,126.098,61.902,125.753z M61.148,127.913
		c0.174,0.251,0.262,0.547,0.262,0.888c0,0.291-0.061,0.548-0.182,0.77c-0.121,0.223-0.273,0.392-0.461,0.508
		s-0.42,0.199-0.698,0.25c-0.158,0.029-0.433,0.043-0.823,0.043h-2.275v-3.143h2.113c0.582,0,1.027,0.051,1.338,0.153
		C60.73,127.485,60.973,127.662,61.148,127.913z M60.795,125.591c-0.155,0.212-0.387,0.364-0.694,0.455
		c-0.233,0.071-0.618,0.106-1.154,0.106h-1.976v-2.762h1.827c0.657,0,1.12,0.042,1.39,0.127c0.271,0.085,0.479,0.243,0.623,0.474
		c0.146,0.23,0.219,0.498,0.219,0.801C61.029,125.113,60.951,125.379,60.795,125.591z"/>
	<path d="M78.684,173.069H60.801h-3.429H39.489c-3.712,0-6.732,3.02-6.732,6.732v12.185c0,3.712,3.02,6.732,6.732,6.732h17.883
		h3.429h17.883c3.712,0,6.732-3.02,6.732-6.732v-12.185C85.416,176.089,82.396,173.069,78.684,173.069z M39.489,197.726
		c-3.165,0-5.74-2.575-5.74-5.74v-12.185c0-3.166,2.575-5.74,5.74-5.74h17.883v23.665H39.489z M58.364,197.726v-23.665h1.445v23.665
		H58.364z M84.424,191.986c0,3.165-2.575,5.74-5.74,5.74H60.801v-23.665h17.883c3.165,0,5.74,2.575,5.74,5.74V191.986z"/>
	<path d="M57.99,163.903c0.472-0.336,1.059-0.505,1.762-0.505c0.611,0,1.118,0.152,1.522,0.455c0.402,0.304,0.709,0.788,0.922,1.453
		l1.191-0.28c-0.246-0.844-0.68-1.499-1.303-1.964c-0.625-0.466-1.394-0.699-2.308-0.699c-0.807,0-1.545,0.184-2.217,0.552
		c-0.671,0.368-1.188,0.906-1.552,1.615c-0.364,0.708-0.546,1.539-0.546,2.491c0,0.873,0.161,1.689,0.483,2.45
		s0.792,1.342,1.409,1.743c0.617,0.401,1.418,0.602,2.403,0.602c0.952,0,1.756-0.261,2.417-0.782
		c0.658-0.521,1.115-1.279,1.369-2.273l-1.211-0.305c-0.166,0.769-0.484,1.349-0.953,1.739c-0.471,0.391-1.044,0.586-1.721,0.586
		c-0.557,0-1.075-0.144-1.553-0.43c-0.478-0.287-0.83-0.72-1.057-1.3c-0.227-0.58-0.34-1.258-0.34-2.036
		c0-0.603,0.096-1.188,0.287-1.755C57.187,164.692,57.518,164.24,57.99,163.903z"/>
	<path d="M78.684,214.694H60.801h-3.429H39.489c-3.712,0-6.732,3.021-6.732,6.732v12.185c0,3.712,3.02,6.732,6.732,6.732h17.883
		h3.429h17.883c3.712,0,6.732-3.021,6.732-6.732v-12.185C85.416,217.714,82.396,214.694,78.684,214.694z M39.489,239.351
		c-3.165,0-5.74-2.575-5.74-5.74v-12.185c0-3.165,2.575-5.74,5.74-5.74h17.883v23.665H39.489z M58.364,239.351v-23.665h1.445v23.665
		H58.364z M84.424,233.611c0,3.165-2.575,5.74-5.74,5.74H60.801v-23.665h17.883c3.165,0,5.74,2.575,5.74,5.74V233.611z"/>
	<path d="M60.577,213.128c0.427-0.104,0.79-0.256,1.091-0.458c0.303-0.201,0.58-0.478,0.832-0.829
		c0.254-0.352,0.463-0.795,0.625-1.331s0.242-1.151,0.242-1.846c0-0.814-0.119-1.539-0.357-2.173c-0.24-0.634-0.6-1.154-1.082-1.562
		c-0.371-0.316-0.816-0.534-1.341-0.655c-0.374-0.087-0.917-0.131-1.627-0.131h-3.148v9.141h3.298
		C59.662,213.285,60.151,213.233,60.577,213.128z M57.021,212.205v-6.982h1.92c0.719,0,1.241,0.063,1.565,0.187
		c0.449,0.175,0.83,0.519,1.145,1.032c0.313,0.514,0.471,1.248,0.471,2.204c0,0.69-0.08,1.277-0.24,1.762
		c-0.16,0.483-0.385,0.869-0.67,1.156c-0.205,0.203-0.478,0.361-0.82,0.474c-0.344,0.112-0.816,0.168-1.419,0.168H57.021z"/>
	<path d="M78.684,258.194H60.801h-3.429H39.489c-3.712,0-6.732,3.021-6.732,6.732v12.185c0,3.712,3.02,6.732,6.732,6.732h17.883
		h3.429h17.883c3.712,0,6.732-3.021,6.732-6.732v-12.185C85.416,261.214,82.396,258.194,78.684,258.194z M39.489,282.851
		c-3.165,0-5.74-2.575-5.74-5.74v-12.185c0-3.165,2.575-5.74,5.74-5.74h17.883v23.665H39.489z M58.364,282.851v-23.665h1.445v23.665
		H58.364z M84.424,277.111c0,3.165-2.575,5.74-5.74,5.74H60.801v-23.665h17.883c3.165,0,5.74,2.575,5.74,5.74V277.111z"/>
	<polygon points="62.445,248.723 62.445,247.644 55.836,247.644 55.836,256.785 62.656,256.785 62.656,255.705 57.045,255.705
		57.045,252.595 62.102,252.595 62.102,251.522 57.045,251.522 57.045,248.723 	"/>
	<path d="M20.575,294.395l0.108,0.428h76.805l0.109-0.428c0.122-0.479,0.207-0.925,0.237-1.273V33.957
		c0-0.294-0.044-0.522-0.145-0.763c-1.3-3.114-7.053-5.94-9.466-7.01c-3.695-1.64-7.845-2.999-12.001-3.931
		c-5.67-1.271-11.331-1.915-16.828-1.915c-5.621,0-11.531,0.754-17.564,2.243c-3.998,0.987-8.583,2.642-12.579,4.54
		c-2.913,1.385-5.122,2.724-6.755,4.092c-0.206,0.173-2.017,1.714-2.159,2.743l0.002,259.216
		C20.368,293.468,20.453,293.913,20.575,294.395z M23.226,32.083c1.558-1.306,3.689-2.594,6.514-3.937
		c3.93-1.867,8.436-3.494,12.363-4.463c5.945-1.466,11.763-2.21,17.292-2.21c5.413,0,10.991,0.635,16.58,1.887
		c4.085,0.916,8.161,2.25,11.789,3.86c3.681,1.633,7.946,4.174,8.88,6.412c0.042,0.102,0.056,0.18,0.056,0.325l0.003,259.113
		c-0.014,0.15-0.052,0.37-0.104,0.618H21.574c-0.053-0.243-0.089-0.45-0.102-0.566L21.466,34.04
		C21.532,33.717,22.483,32.705,23.226,32.083z"/>
</g>
</svg>
