<?xml version="1.0" encoding="utf-8"?>
<!-- Generator: Adobe Illustrator 20.0.0, SVG Export Plug-In . SVG Version: 6.00 Build 0)  -->
<svg version="1.1" id="Layer_1" xmlns="http://www.w3.org/2000/svg" xmlns:xlink="http://www.w3.org/1999/xlink" x="0px" y="0px"
	 viewBox="0 0 798.2 798.2" style="enable-background:new 0 0 798.2 798.2;" xml:space="preserve">
<style type="text/css">
	.st0{fill:none;stroke:#000000;stroke-width:3;stroke-miterlimit:10;}
	.st1{fill:none;stroke:#000000;stroke-width:4;stroke-miterlimit:10;}
	.st2{fill:#231F20;stroke:#000000;stroke-width:3;stroke-miterlimit:10;}
</style>
<image style="overflow:visible;" width="800" height="600" xlink:href="3764_0.JPG"  transform="matrix(1 0 0 1 962.3566 73.2773)">
</image>
<circle class="st0" cx="1204.1" cy="425.1" r="204.5"/>
<circle class="st1" cx="1204.1" cy="425.1" r="185.7"/>
<g>
	<g>
		<path d="M1174.8,278.4c0,37.3,0,74.7,0,112c0,59.1,0,118.2,0,177.3c0,13.6,0,27.2,0,40.8c0,1.9,3,1.9,3,0c0-37.3,0-74.7,0-112
			c0-59.1,0-118.2,0-177.3c0-13.6,0-27.2,0-40.8C1177.8,276.5,1174.8,276.5,1174.8,278.4L1174.8,278.4z"/>
	</g>
</g>
<g>
	<g>
		<path d="M1193.7,278.4c0,37.3,0,74.7,0,112c0,59.1,0,118.2,0,177.3c0,13.6,0,27.2,0,40.8c0,1.9,3,1.9,3,0c0-37.3,0-74.7,0-112
			c0-59.1,0-118.2,0-177.3c0-13.6,0-27.2,0-40.8C1196.7,276.5,1193.7,276.5,1193.7,278.4L1193.7,278.4z"/>
	</g>
</g>
<g>
	<g>
		<path d="M1212.4,278.6c0,37.3,0,74.7,0,112c0,59.1,0,118.2,0,177.3c0,13.6,0,27.2,0,40.8c0,1.9,3,1.9,3,0c0-37.3,0-74.7,0-112
			c0-59.1,0-118.2,0-177.3c0-13.6,0-27.2,0-40.8C1215.4,276.7,1212.4,276.7,1212.4,278.6L1212.4,278.6z"/>
	</g>
</g>
<g>
	<g>
		<path d="M1231,278.6c0,37.3,0,74.7,0,112c0,59.1,0,118.2,0,177.3c0,13.6,0,27.2,0,40.8c0,1.9,3,1.9,3,0c0-37.3,0-74.7,0-112
			c0-59.1,0-118.2,0-177.3c0-13.6,0-27.2,0-40.8C1234,276.7,1231,276.7,1231,278.6L1231,278.6z"/>
	</g>
</g>
<path class="st2" d="M1185.8,341.3L1185.8,341.3c-2.3,0-4.2-1.9-4.2-4.2v-59.3c0-2.3,1.9-4.2,4.2-4.2l0,0c2.3,0,4.2,1.9,4.2,4.2
	v59.3C1190,339.4,1188.1,341.3,1185.8,341.3z"/>
<path class="st2" d="M1204.6,341.3L1204.6,341.3c-2.3,0-4.2-1.9-4.2-4.2v-59.3c0-2.3,1.9-4.2,4.2-4.2l0,0c2.3,0,4.2,1.9,4.2,4.2
	v59.3C1208.8,339.4,1206.9,341.3,1204.6,341.3z"/>
<path class="st2" d="M1223.4,341.3L1223.4,341.3c-2.3,0-4.2-1.9-4.2-4.2v-59.3c0-2.3,1.9-4.2,4.2-4.2l0,0c2.3,0,4.2,1.9,4.2,4.2
	v59.3C1227.6,339.4,1225.7,341.3,1223.4,341.3z"/>
<g>
	<path d="M1129.9,553.5v-7.7h-2.7v-1.6h7.4v1.6h-2.7v7.7H1129.9z"/>
	<path d="M1135.7,553.5v-9.3h6.9v1.6h-5v2.1h4.6v1.6h-4.6v2.5h5.2v1.6H1135.7z"/>
	<path d="M1143.8,550.5l1.8-0.2c0.1,0.6,0.3,1.1,0.7,1.3c0.3,0.3,0.8,0.4,1.4,0.4c0.6,0,1.1-0.1,1.4-0.4c0.3-0.3,0.5-0.6,0.5-0.9
		c0-0.2-0.1-0.4-0.2-0.6c-0.1-0.2-0.4-0.3-0.7-0.4c-0.2-0.1-0.7-0.2-1.5-0.4c-1-0.2-1.7-0.6-2.1-0.9c-0.6-0.5-0.9-1.1-0.9-1.9
		c0-0.5,0.1-0.9,0.4-1.3c0.3-0.4,0.7-0.7,1.2-0.9c0.5-0.2,1.1-0.3,1.8-0.3c1.2,0,2,0.3,2.6,0.8s0.9,1.2,0.9,2l-1.9,0.1
		c-0.1-0.5-0.3-0.8-0.5-1c-0.3-0.2-0.7-0.3-1.2-0.3c-0.5,0-1,0.1-1.3,0.3c-0.2,0.1-0.3,0.3-0.3,0.6c0,0.2,0.1,0.4,0.3,0.6
		c0.2,0.2,0.8,0.4,1.7,0.6s1.6,0.4,2,0.7s0.8,0.5,1,0.9c0.2,0.4,0.4,0.9,0.4,1.5c0,0.5-0.1,1-0.4,1.5s-0.7,0.8-1.2,1
		c-0.5,0.2-1.2,0.3-2,0.3c-1.2,0-2.1-0.3-2.7-0.8C1144.3,552.3,1143.9,551.5,1143.8,550.5z"/>
	<path d="M1155,553.5v-7.7h-2.7v-1.6h7.4v1.6h-2.7v7.7H1155z"/>
</g>
<g>
	<path d="M1244.1,553.5v-9.2h1.9v7.6h4.6v1.6H1244.1z"/>
	<path d="M1252,553.5v-9.3h6.9v1.6h-5v2.1h4.6v1.6h-4.6v2.5h5.2v1.6H1252z"/>
	<path d="M1268.9,553.5h-2l-0.8-2.1h-3.7l-0.8,2.1h-2l3.6-9.3h2L1268.9,553.5z M1265.5,549.8l-1.3-3.4l-1.2,3.4H1265.5z"/>
	<path d="M1269.9,553.5v-9.3h3.9c1,0,1.7,0.1,2.2,0.2s0.8,0.5,1.1,0.9s0.4,0.9,0.4,1.5c0,0.7-0.2,1.3-0.6,1.7s-1,0.7-1.8,0.9
		c0.4,0.2,0.7,0.5,1,0.8c0.3,0.3,0.6,0.8,1.1,1.5l1.1,1.8h-2.2l-1.4-2c-0.5-0.7-0.8-1.2-1-1.4s-0.4-0.3-0.6-0.4
		c-0.2-0.1-0.5-0.1-0.9-0.1h-0.4v3.9H1269.9z M1271.8,548.2h1.4c0.9,0,1.5,0,1.7-0.1c0.2-0.1,0.4-0.2,0.5-0.4
		c0.1-0.2,0.2-0.4,0.2-0.7c0-0.3-0.1-0.6-0.2-0.8c-0.2-0.2-0.4-0.3-0.7-0.4c-0.2,0-0.6,0-1.4,0h-1.5V548.2z"/>
	<path d="M1279.3,553.5v-9.3h1.8l3.8,6.2v-6.2h1.7v9.3h-1.9l-3.7-6v6H1279.3z"/>
</g>
<circle cx="1101" cy="525.9" r="8.4"/>
<circle cx="1307.8" cy="525.9" r="8.4"/>
<g>
	<path class="st0" d="M1176.4,529.4h-46.9c-10.2,0-18.1,8.5-18.1,18.7V548c0,10.2,8,18.4,18.1,18.4h46.9V529.4z"/>
	<path class="st0" d="M1279.3,529.4h-46.9v37h46.9c10.2,0,18.1-8.2,18.1-18.4V548C1297.4,537.8,1289.4,529.4,1279.3,529.4z"/>
</g>
<g>
	<path d="M399.1,798.2C179,798.2,0,619.1,0,399.1C0,179,179,0,399.1,0c220.1,0,399.1,179,399.1,399.1
		C798.2,619.1,619.1,798.2,399.1,798.2z M399.1,5.8C182.2,5.8,5.8,182.2,5.8,399.1c0,216.9,176.4,393.3,393.3,393.3
		c216.9,0,393.3-176.4,393.3-393.3C792.4,182.2,615.9,5.8,399.1,5.8z"/>
</g>
<path d="M399.1,34.6c-201,0-364.5,163.5-364.5,364.5c0,201,163.5,364.5,364.5,364.5c201,0,364.5-163.5,364.5-364.5
	C763.6,198.1,600.1,34.6,399.1,34.6z M456.9,749.1c0-70.4,0-140.8,0-211.1c0-114.5,0-229,0-343.5c0-26.4,0-53.6,0-78.6c0-4-6-4-6,0
	c0,72,0,144.2,0,216.5c0,114.5,0,229,0,343.5c0,24.7,0,49.4,0,74.2c-10,1.5-19,2.5-31,3.2c0-71.7,0-143.5,0-215.2
	c0-114.5,0-229,0-343.5c0-26.4,0-53.6,0-78.6c0-4-6-4-6,0c0,72,0,144.2,0,216.5c0,114.5,0,229,0,343.5c0,25.9,0,51.8,0,77.6
	c-4,0.2-10,0.4-15.4,0.4c-4.8,0-9.6-0.1-13.6-0.3c0-72,0-144,0-216.1c0-114.5,0-229,0-343.5c0-26.4,0-53.1,0-80.1c0-2-6-2-6,0
	c0,74,0,145.7,0,218c0,114.5,0,229,0,343.5c0,26,0,51.9,0,77.9c-11-0.6-21-1.6-31-3.1c0-70.9,0-141.8,0-212.7c0-114.5,0-229,0-343.5
	c0-26.4,0-53.1,0-80.1c0-2-5-2-5,0c0,74,0,145.7,0,218c0,114.5,0,229,0,343.5c0,24.6,0,49.3,0,73.9
	c-169-27.3-298.3-173.9-298.3-350.2c0-195.6,159-354.8,354.7-354.8c195.6,0,354.6,159.2,354.6,354.8
	C753.9,575,624.9,721.3,456.9,749.1z"/>
<g>
	<path d="M363.9,102.6c-6.3,0-12,5.1-12,11.1v114.9c0,6,5.7,11.1,12,11.1s12-5.1,12-11.1V113.7C375.9,107.7,370.2,102.6,363.9,102.6
		z"/>
	<path d="M399.4,102.6c-6,0-10.5,4.9-10.5,11.1v114.9c0,6.2,4.5,11.1,10.5,11.1c6,0,10.5-4.9,10.5-11.1V113.7
		C409.9,107.5,405.4,102.6,399.4,102.6z"/>
	<path d="M436.4,102.4c-5.9,0-10.5,4.8-10.5,10.7v116.2c0,5.9,4.6,10.7,10.5,10.7s10.5-4.8,10.5-10.7V113
		C446.9,107.2,442.3,102.4,436.4,102.4z"/>
</g>
<g>
	<path d="M255.3,647.8v-14.9H250v-3h14.2v3h-5.3v14.9H255.3z"/>
	<path d="M266.6,647.8v-17.9h13.3v3h-9.7v4h9v3h-9v4.9h10v3H266.6z"/>
	<path d="M282.4,642l3.5-0.3c0.2,1.2,0.6,2,1.3,2.6c0.6,0.6,1.5,0.8,2.6,0.8c1.2,0,2-0.2,2.6-0.7c0.6-0.5,0.9-1.1,0.9-1.7
		c0-0.4-0.1-0.8-0.4-1.1c-0.2-0.3-0.7-0.6-1.3-0.8c-0.4-0.1-1.4-0.4-2.9-0.8c-1.9-0.5-3.3-1.1-4.1-1.8c-1.1-1-1.7-2.2-1.7-3.6
		c0-0.9,0.3-1.8,0.8-2.6c0.5-0.8,1.3-1.4,2.2-1.8c1-0.4,2.1-0.6,3.5-0.6c2.2,0,3.9,0.5,5.1,1.5c1.1,1,1.7,2.3,1.8,3.9l-3.6,0.2
		c-0.2-0.9-0.5-1.6-1-2c-0.5-0.4-1.3-0.6-2.3-0.6c-1.1,0-1.9,0.2-2.5,0.6c-0.4,0.3-0.6,0.6-0.6,1.1c0,0.4,0.2,0.8,0.5,1.1
		c0.5,0.4,1.6,0.8,3.3,1.2c1.8,0.4,3.1,0.8,3.9,1.3c0.8,0.4,1.5,1.1,2,1.8c0.5,0.8,0.7,1.7,0.7,2.9c0,1-0.3,2-0.9,2.9
		c-0.6,0.9-1.4,1.6-2.4,2c-1,0.4-2.3,0.7-3.9,0.7c-2.3,0-4-0.5-5.2-1.6C283.3,645.5,282.6,644,282.4,642z"/>
	<path d="M304,647.8v-14.9h-5.3v-3h14.2v3h-5.3v14.9H304z"/>
</g>
<g>
	<path d="M476.7,647.8V630h3.6v14.8h9v3H476.7z"/>
	<path d="M491.9,647.8v-17.9h13.3v3h-9.7v4h9v3h-9v4.9h10v3H491.9z"/>
	<path d="M524.7,647.8h-3.9l-1.6-4.1h-7.2l-1.5,4.1h-3.8l7-17.9h3.8L524.7,647.8z M518.1,640.7l-2.5-6.7l-2.4,6.7H518.1z"/>
	<path d="M526.7,647.8v-17.9h7.6c1.9,0,3.3,0.2,4.2,0.5c0.9,0.3,1.6,0.9,2.1,1.7c0.5,0.8,0.8,1.8,0.8,2.8c0,1.3-0.4,2.5-1.2,3.3
		s-2,1.4-3.5,1.7c0.8,0.5,1.4,1,1.9,1.5c0.5,0.5,1.2,1.5,2.1,2.9l2.2,3.5h-4.3l-2.6-3.9c-0.9-1.4-1.6-2.3-1.9-2.6
		c-0.3-0.4-0.7-0.6-1.1-0.7c-0.4-0.1-1-0.2-1.8-0.2h-0.7v7.5H526.7z M530.3,637.5h2.7c1.7,0,2.8-0.1,3.3-0.2c0.4-0.1,0.8-0.4,1-0.8
		c0.2-0.4,0.4-0.8,0.4-1.3c0-0.6-0.2-1.1-0.5-1.5c-0.3-0.4-0.8-0.6-1.4-0.7c-0.3,0-1.2-0.1-2.6-0.1h-2.8V637.5z"/>
	<path d="M544.8,647.8v-17.9h3.5l7.3,12v-12h3.4v17.9h-3.6l-7.2-11.7v11.7H544.8z"/>
</g>
<circle cx="199.5" cy="594.4" r="16.2"/>
<circle cx="599.9" cy="594.4" r="16.2"/>
<g>
	<g>
		<path d="M347.9,675.9h-93.2c-21.3,0-37.8-17.1-37.8-38.6l0,0c0,0,0-0.1,0-0.1s0-0.1,0-0.1l0,0c0-21.4,16.9-39.2,37.8-39.2h93.2
			V675.9z M222.5,637.1c0,18.4,14.2,32.8,32.2,32.8h88.2v-66h-88.2C237,603.9,222.5,618.8,222.5,637.1z"/>
	</g>
	<g>
		<path d="M544.7,675.9h-93.8v-78h93.8c21,0,38,17.7,38,39.1C582.7,658.7,566,675.9,544.7,675.9z M456.9,669.9h87.8
			c18.1,0,32.2-14.4,32.2-32.7c0-18.4-14.5-33.3-32.2-33.3h-87.8V669.9z"/>
	</g>
</g>
</svg>
