<?xml version="1.0" encoding="utf-8"?>
<!-- Generator: Adobe Illustrator 17.0.0, SVG Export Plug-In . SVG Version: 6.00 Build 0)  -->
<!DOCTYPE svg PUBLIC "-//W3C//DTD SVG 1.1//EN" "http://www.w3.org/Graphics/SVG/1.1/DTD/svg11.dtd">
<svg version="1.1" id="Layer_1" xmlns="http://www.w3.org/2000/svg" xmlns:xlink="http://www.w3.org/1999/xlink" x="0px" y="0px"
	 width="635.26px" height="1381.97px" viewBox="0 0 635.26 1381.97" enable-background="new 0 0 635.26 1381.97"
	 xml:space="preserve">
<g>
	<path fill-rule="evenodd" clip-rule="evenodd" d="M635.26,109.803c-0.046-38.382-69.376-65.591-109.807-78.308
		C462.95,11.834,385.788,0.097,319.046,0.097c-108.897,0-257.017,31.564-303.948,78.553C5.081,88.678,0.009,99.116,0.022,109.671
		l0,1230.715c0.028,22.966,28.075,41.68,60.655,41.68h515.468c19.212,0,37.313-6.639,48.42-17.758
		c7.021-7.029,10.727-15.294,10.717-23.901L635.26,109.803z M618.548,1358.299c-9.547,9.558-25.398,15.264-42.403,15.264H60.676
		c-27.424,0-52.129-15.214-52.151-33.186l0-1230.716c-0.01-8.216,4.226-16.628,12.589-25.001
		c20.456-20.481,64.362-39.791,123.629-54.372C200.768,16.505,264.298,8.601,319.046,8.601c64.94,0,143.054,11.881,203.855,31.006
		c65.021,20.453,103.825,46.132,103.854,70.206l0.021,1230.604C626.784,1346.718,623.938,1352.901,618.548,1358.299z"/>
	<path fill-rule="evenodd" clip-rule="evenodd" d="M589.101,112.492l-0.445-0.574c-8.945-11.534-43.278-26.136-55.752-30.789
		c-35.834-13.366-78.158-23.48-125.795-30.062c-30.838-4.261-60.474-6.421-88.084-6.421c-29.102,0-60.382,2.295-92.973,6.822
		c-47.879,6.651-90.119,16.654-125.546,29.731c-12.441,4.593-46.649,19.014-55.416,30.443l-0.44,0.574l1.505,1220.713l0.002,1.411
		l1.302,0.547c4.266,1.788,10.229,2.438,13.197,2.438h515.468c2.954,0,8.899-0.645,13.172-2.422l1.312-0.545l-1.505-1221.139
		L589.101,112.492z M576.123,1333.072H60.655c-2.77,0-7.04-0.565-10.25-1.624L48.903,113.682
		c8.835-10.516,41.963-24.394,53.074-28.495c35.141-12.972,77.082-22.9,124.659-29.508c32.398-4.5,63.482-6.782,92.388-6.782
		c27.416,0,56.856,2.147,87.502,6.381c47.329,6.539,89.348,16.576,124.891,29.834c11.148,4.158,44.426,18.224,53.434,28.862
		l1.5,1217.484C583.137,1332.511,578.879,1333.072,576.123,1333.072z"/>
	<path fill-rule="evenodd" clip-rule="evenodd" d="M317.63,927.132c-48.679,0-92.75,19.732-124.652,51.633
		c-31.901,31.901-51.633,75.973-51.633,124.651s19.731,92.751,51.633,124.652c31.901,31.901,75.973,51.633,124.652,51.633
		c48.679,0,92.75-19.731,124.651-51.633c31.901-31.901,51.633-75.973,51.633-124.652s-19.732-92.75-51.633-124.651
		C410.38,946.864,366.309,927.132,317.63,927.132z M438.985,1224.772c-31.057,31.057-73.963,50.266-121.355,50.266
		c-47.392,0-90.299-19.21-121.355-50.266c-31.057-31.057-50.266-73.963-50.266-121.356c0-47.392,19.21-90.298,50.266-121.355
		c31.057-31.057,73.963-50.267,121.355-50.267c47.392,0,90.298,19.21,121.355,50.267c31.057,31.057,50.267,73.963,50.267,121.355
		C489.252,1150.809,470.042,1193.715,438.985,1224.772z"/>
	<path fill-rule="evenodd" clip-rule="evenodd" d="M317.63,943.102c-44.269,0-84.349,17.944-113.359,46.955
		c-8.474,8.474-16.002,17.894-22.416,28.085v-0.106l-2.076,3.496c-0.179,0.301-0.357,0.604-0.535,0.906l-0.415,0.711
		c-0.175,0.301-0.348,0.604-0.521,0.906l-0.465,0.821l-0.492,0.88l-0.426,0.772c-0.189,0.345-0.376,0.691-0.563,1.037l-0.365,0.681
		l-0.521,0.988l-0.058,0.111l-0.253,0.487l-0.032,0.062c-0.184,0.357-0.369,0.716-0.55,1.074l-0.326,0.646
		c-0.174,0.347-0.348,0.696-0.52,1.045l-0.397,0.811c-0.162,0.332-0.322,0.665-0.481,0.999l-0.357,0.753l-0.467,1.001l-0.014,0.03
		l-0.23,0.501l-0.04,0.088c-0.184,0.403-0.367,0.806-0.547,1.211l-0.231,0.519c-0.174,0.393-0.347,0.786-0.517,1.181l-0.322,0.748
		l-0.436,1.031l-0.332,0.798l-0.414,1.016l-0.207,0.513l-0.037,0.092c-0.171,0.428-0.34,0.857-0.508,1.286l-0.232,0.598
		c-0.144,0.373-0.286,0.746-0.427,1.121l-0.194,0.52l-0.069,0.188c-0.153,0.413-0.305,0.828-0.455,1.243l-0.048,0.132l-0.187,0.523
		l-0.001,0.004l-0.369,1.044l-0.182,0.526l-0.07,0.202c-0.142,0.412-0.282,0.827-0.421,1.241l-0.046,0.137l-0.175,0.529l-0.033,0.1
		l-0.14,0.429l-0.168,0.516l-0.165,0.518l-0.164,0.518c-0.107,0.338-0.211,0.678-0.316,1.018l-0.007,0.021l-0.158,0.521
		l-0.027,0.091c-0.137,0.452-0.27,0.905-0.403,1.358l-0.035,0.117l-0.152,0.524c-0.126,0.44-0.251,0.881-0.375,1.323l-0.119,0.429
		c-0.127,0.46-0.252,0.922-0.375,1.384l-0.005,0.021l-0.139,0.529c-2.258,8.618-3.819,17.52-4.614,26.64l-0.023,0.247h0.003
		c-0.392,4.569-0.594,9.192-0.594,13.862c0,5.425,0.27,10.787,0.797,16.073h-0.004l0.033,0.307l0.001,0.011l0.105,0.971l0.021,0.195
		c0.052,0.475,0.105,0.949,0.161,1.422l0.064,0.538l0.017,0.14c0.059,0.484,0.12,0.967,0.184,1.449l0.003,0.021l0.071,0.536
		l0.013,0.092c0.062,0.456,0.126,0.912,0.192,1.367l0.021,0.145l0.078,0.534l0.003,0.022l0.159,1.044l0.084,0.531l0.025,0.154
		c0.077,0.48,0.156,0.959,0.237,1.438l0.091,0.53c2.841,16.418,8.177,31.98,15.607,46.282l0.056,0.108
		c0.234,0.451,0.471,0.901,0.71,1.348l0.251,0.469l0.06,0.111c0.2,0.373,0.402,0.744,0.605,1.115l0.361,0.656l0.508,0.909
		l0.261,0.461l0.098,0.172c0.222,0.39,0.445,0.779,0.67,1.168l0.023,0.04l0.267,0.458l0.081,0.138
		c0.19,0.324,0.38,0.647,0.572,0.969l2.052,3.455v-0.106c6.414,10.191,13.942,19.611,22.416,28.085
		c29.01,29.011,69.09,46.955,113.359,46.955c44.269,0,84.348-17.944,113.359-46.955c29.011-29.01,46.955-69.09,46.955-113.359
		c0-44.269-17.944-84.348-46.955-113.359C401.978,961.046,361.899,943.102,317.63,943.102z M179.524,1026.645v60.578h-19.057
		C162.688,1065.412,169.346,1044.915,179.524,1026.645z M179.524,1180.188c-9.833-17.651-16.38-37.381-18.815-58.366h18.815
		V1180.188z M467.485,1153.384c-3.114,9.349-7.085,18.317-11.818,26.811v-58.373h18.818
		C473.221,1132.724,470.849,1143.284,467.485,1153.384z M455.668,1026.637c4.905,8.804,8.992,18.125,12.159,27.859
		c3.409,10.478,5.752,21.431,6.902,32.727h-19.061V1026.637z M454.502,1089.554h20.51c0.397,4.568,0.602,9.191,0.602,13.862
		c0,5.426-0.274,10.788-0.808,16.073h-20.303h-1.166v1.166v63.687c-6.718,11.241-14.79,21.579-23.996,30.784
		c-28.589,28.589-68.086,46.272-111.711,46.272c-43.625,0-83.122-17.683-111.711-46.272c-9.237-9.237-17.333-19.614-24.065-30.899
		v-63.572v-1.166h-1.166h-20.234c-0.534-5.285-0.808-10.647-0.808-16.073c0-4.671,0.205-9.294,0.602-13.862h20.441h1.166
		l-0.001-1.166v-65.783c6.731-11.286,14.827-21.662,24.065-30.899c28.589-28.589,68.085-46.273,111.711-46.273
		c43.625,0,83.121,17.684,111.711,46.273c9.205,9.205,17.278,19.544,23.996,30.784v65.898v1.166H454.502z"/>
	<circle fill-rule="evenodd" clip-rule="evenodd" cx="236.667" cy="1103.417" r="22.829"/>
	<circle fill-rule="evenodd" clip-rule="evenodd" cx="398.593" cy="1103.417" r="22.829"/>
</g>
<g>
	<path d="M567.753,220.098H69.841c-3.908,0-7.087-3.179-7.087-7.086V205.6c0-3.908,3.179-7.087,7.087-7.087h497.912
		c3.908,0,7.087,3.179,7.087,7.087v7.412C574.84,216.919,571.661,220.098,567.753,220.098z M69.841,201.348
		c-2.345,0-4.252,1.907-4.252,4.252v7.412c0,2.344,1.907,4.251,4.252,4.251h497.912c2.345,0,4.253-1.907,4.253-4.251V205.6
		c0-2.345-1.908-4.252-4.253-4.252H69.841z"/>
</g>
<g>
	<path d="M567.753,249.348H69.841c-3.908,0-7.087-3.179-7.087-7.087v-7.412c0-3.907,3.179-7.086,7.087-7.086h497.912
		c3.908,0,7.087,3.179,7.087,7.086v7.412C574.84,246.169,571.661,249.348,567.753,249.348z M69.841,230.598
		c-2.345,0-4.252,1.907-4.252,4.251v7.412c0,2.345,1.907,4.252,4.252,4.252h497.912c2.345,0,4.253-1.907,4.253-4.252v-7.412
		c0-2.344-1.908-4.251-4.253-4.251H69.841z"/>
</g>
<g>
	<path d="M567.753,278.598H69.841c-3.908,0-7.087-3.179-7.087-7.087V264.1c0-3.907,3.179-7.086,7.087-7.086h497.912
		c3.908,0,7.087,3.179,7.087,7.086v7.412C574.84,275.419,571.661,278.598,567.753,278.598z M69.841,259.848
		c-2.345,0-4.252,1.907-4.252,4.251v7.412c0,2.345,1.907,4.252,4.252,4.252h497.912c2.345,0,4.253-1.907,4.253-4.252V264.1
		c0-2.344-1.908-4.251-4.253-4.251H69.841z"/>
</g>
<g>
	<path d="M559.249,802.379H78.345c-8.597,0-15.591-6.991-15.591-15.586v-484.66c0-8.594,6.994-15.586,15.591-15.586h480.904
		c8.597,0,15.591,6.992,15.591,15.586v484.66C574.84,795.388,567.846,802.379,559.249,802.379z M78.345,289.381
		c-7.034,0-12.756,5.72-12.756,12.751v484.66c0,7.031,5.722,12.752,12.756,12.752h480.904c7.034,0,12.757-5.721,12.757-12.752
		v-484.66c0-7.031-5.723-12.751-12.757-12.751H78.345z"/>
</g>
<g>
	<path d="M330.563,419.333c-2.651-2.652-6.321-4.293-10.374-4.293c-4.05,0-7.72,1.643-10.374,4.298
		c-2.654,2.654-4.298,6.324-4.298,10.374c0,4.053,1.641,7.723,4.293,10.374h0.004c2.654,2.654,6.324,4.298,10.374,4.298
		c4.053,0,7.723-1.641,10.374-4.293l0.004-0.004c2.652-2.651,4.293-6.321,4.293-10.374c0-4.05-1.643-7.72-4.298-10.374V419.333z
		 M320.189,412.884c4.642,0,8.849,1.885,11.896,4.931l0.002-0.002c3.045,3.044,4.929,7.252,4.929,11.898
		c0,4.641-1.884,8.847-4.929,11.893l-0.002,0.002l-0.002,0.002c-3.047,3.045-7.253,4.929-11.893,4.929
		c-4.646,0-8.853-1.885-11.898-4.929l0.002-0.002c-3.047-3.047-4.931-7.254-4.931-11.896c0-4.646,1.885-8.853,4.929-11.898
		C311.336,414.769,315.543,412.884,320.189,412.884z"/>
</g>
<g>
	<path fill-rule="evenodd" clip-rule="evenodd" fill="#000000" d="M307.296,429.585c0-3.164,1.167-6.383,3.77-8.986h0.002
		c2.521-2.512,5.826-3.77,9.124-3.773c3.302-0.002,6.603,1.254,9.11,3.759h0.002c2.515,2.515,3.775,5.818,3.775,9.12
		c0,3.299-1.258,6.6-3.775,9.117l-0.001-0.001c-1.181,1.187-2.598,2.146-4.174,2.799h-0.002c-1.52,0.629-3.19,0.977-4.934,0.977
		c-3.696,0-6.797-1.451-9.032-3.684l-0.002-0.002c-1.224-1.225-2.192-2.691-2.851-4.284
		C307.648,433.035,307.296,431.315,307.296,429.585"/>
</g>
<g>
	<path d="M227.839,648.249l-7.315-27.567h3.742l4.193,18.071c0.452,1.893,0.84,3.773,1.166,5.641
		c0.702-2.946,1.116-4.645,1.241-5.096l5.246-18.616h4.4l3.949,13.953c0.99,3.46,1.705,6.713,2.144,9.759
		c0.351-1.742,0.809-3.742,1.373-5.999l4.325-17.713h3.667l-7.559,27.567h-3.517l-5.811-21.004
		c-0.489-1.755-0.777-2.833-0.865-3.234c-0.289,1.267-0.558,2.345-0.809,3.234l-5.848,21.004H227.839z"/>
	<path d="M259.994,648.249v-27.567h3.648v27.567H259.994z"/>
	<path d="M270.129,648.249v-27.567h12.223c2.457,0,4.325,0.248,5.604,0.743c1.278,0.496,2.3,1.37,3.065,2.623
		c0.765,1.254,1.147,2.639,1.147,4.156c0,1.956-0.633,3.604-1.899,4.946c-1.267,1.341-3.222,2.194-5.867,2.557
		c0.965,0.464,1.699,0.921,2.2,1.373c1.065,0.978,2.075,2.2,3.027,3.667l4.795,7.503h-4.588l-3.648-5.735
		c-1.066-1.655-1.943-2.921-2.633-3.798s-1.307-1.492-1.852-1.843s-1.1-0.595-1.664-0.733c-0.414-0.087-1.091-0.132-2.031-0.132
		h-4.231v12.242H270.129z M273.777,632.848h7.841c1.667,0,2.971-0.172,3.912-0.517c0.94-0.344,1.655-0.896,2.144-1.655
		c0.489-0.758,0.733-1.582,0.733-2.473c0-1.304-0.473-2.375-1.42-3.215c-0.946-0.84-2.441-1.26-4.484-1.26h-8.726V632.848z"/>
	<path d="M297.96,648.249v-27.567h19.932v3.253h-16.284v8.443h15.25v3.234h-15.25v9.383h16.924v3.253H297.96z"/>
	<path d="M323.42,648.249v-27.567h3.648v24.314h13.576v3.253H323.42z"/>
	<path d="M345.064,648.249v-27.567h19.933v3.253h-16.284v8.443h15.25v3.234h-15.25v9.383h16.924v3.253H345.064z"/>
	<path d="M369.435,639.392l3.44-0.301c0.163,1.379,0.542,2.51,1.138,3.394s1.521,1.599,2.773,2.144
		c1.254,0.545,2.664,0.818,4.231,0.818c1.392,0,2.62-0.207,3.686-0.621s1.858-0.981,2.379-1.702c0.52-0.721,0.78-1.507,0.78-2.36
		c0-0.865-0.251-1.62-0.752-2.266c-0.502-0.646-1.329-1.188-2.482-1.626c-0.74-0.288-2.376-0.736-4.908-1.345
		c-2.532-0.608-4.306-1.181-5.321-1.72c-1.316-0.689-2.298-1.545-2.943-2.567c-0.646-1.021-0.968-2.166-0.968-3.432
		c0-1.392,0.395-2.692,1.185-3.902c0.79-1.21,1.943-2.128,3.46-2.755s3.203-0.94,5.059-0.94c2.043,0,3.845,0.329,5.406,0.987
		c1.561,0.658,2.761,1.626,3.601,2.905s1.291,2.727,1.354,4.344l-3.497,0.263c-0.188-1.742-0.824-3.059-1.909-3.949
		c-1.084-0.89-2.686-1.335-4.804-1.335c-2.207,0-3.814,0.404-4.823,1.213c-1.01,0.809-1.514,1.784-1.514,2.924
		c0,0.99,0.356,1.805,1.071,2.444c0.702,0.64,2.535,1.295,5.5,1.965s4.999,1.257,6.103,1.758c1.604,0.74,2.789,1.677,3.554,2.811
		c0.765,1.135,1.147,2.441,1.147,3.92c0,1.467-0.421,2.849-1.26,4.146c-0.841,1.297-2.047,2.307-3.62,3.027
		s-3.345,1.082-5.313,1.082c-2.494,0-4.585-0.364-6.271-1.091c-1.686-0.727-3.008-1.821-3.967-3.281
		S369.484,641.234,369.435,639.392z"/>
	<path d="M395.121,639.392l3.44-0.301c0.163,1.379,0.542,2.51,1.138,3.394s1.521,1.599,2.773,2.144
		c1.254,0.545,2.664,0.818,4.231,0.818c1.392,0,2.62-0.207,3.686-0.621s1.858-0.981,2.379-1.702c0.52-0.721,0.78-1.507,0.78-2.36
		c0-0.865-0.251-1.62-0.752-2.266c-0.502-0.646-1.329-1.188-2.482-1.626c-0.74-0.288-2.376-0.736-4.908-1.345
		c-2.532-0.608-4.306-1.181-5.321-1.72c-1.316-0.689-2.298-1.545-2.943-2.567c-0.646-1.021-0.968-2.166-0.968-3.432
		c0-1.392,0.395-2.692,1.185-3.902c0.79-1.21,1.943-2.128,3.46-2.755s3.203-0.94,5.059-0.94c2.043,0,3.845,0.329,5.406,0.987
		c1.561,0.658,2.761,1.626,3.601,2.905s1.291,2.727,1.354,4.344l-3.497,0.263c-0.188-1.742-0.824-3.059-1.909-3.949
		c-1.084-0.89-2.686-1.335-4.804-1.335c-2.207,0-3.814,0.404-4.823,1.213c-1.01,0.809-1.514,1.784-1.514,2.924
		c0,0.99,0.356,1.805,1.071,2.444c0.702,0.64,2.535,1.295,5.5,1.965s4.999,1.257,6.103,1.758c1.604,0.74,2.789,1.677,3.554,2.811
		c0.765,1.135,1.147,2.441,1.147,3.92c0,1.467-0.421,2.849-1.26,4.146c-0.841,1.297-2.047,2.307-3.62,3.027
		s-3.345,1.082-5.313,1.082c-2.494,0-4.585-0.364-6.271-1.091c-1.686-0.727-3.008-1.821-3.967-3.281
		S395.171,641.234,395.121,639.392z"/>
</g>
<g>
	<path d="M245.356,760.267l3.441-0.301c0.163,1.379,0.542,2.51,1.137,3.394c0.596,0.884,1.52,1.599,2.774,2.144
		c1.253,0.546,2.664,0.818,4.231,0.818c1.392,0,2.62-0.207,3.686-0.621c1.065-0.413,1.858-0.98,2.379-1.701
		c0.52-0.721,0.78-1.508,0.78-2.36c0-0.864-0.251-1.62-0.752-2.266s-1.329-1.188-2.482-1.627c-0.74-0.288-2.376-0.736-4.908-1.344
		c-2.533-0.608-4.306-1.182-5.322-1.721c-1.316-0.689-2.297-1.545-2.943-2.567c-0.646-1.021-0.968-2.165-0.968-3.432
		c0-1.392,0.395-2.691,1.185-3.901c0.79-1.21,1.943-2.128,3.46-2.755c1.517-0.627,3.203-0.94,5.058-0.94
		c2.043,0,3.846,0.329,5.406,0.987c1.561,0.658,2.761,1.627,3.601,2.905s1.291,2.727,1.354,4.344l-3.498,0.264
		c-0.188-1.743-0.825-3.059-1.909-3.949c-1.084-0.89-2.686-1.335-4.805-1.335c-2.207,0-3.814,0.404-4.823,1.213
		s-1.514,1.783-1.514,2.924c0,0.99,0.357,1.805,1.072,2.444c0.702,0.64,2.536,1.295,5.5,1.965c2.964,0.671,4.999,1.257,6.102,1.759
		c1.604,0.739,2.789,1.677,3.554,2.811c0.765,1.135,1.147,2.442,1.147,3.921c0,1.467-0.42,2.849-1.26,4.146s-2.047,2.307-3.62,3.027
		c-1.574,0.721-3.344,1.081-5.313,1.081c-2.495,0-4.585-0.363-6.271-1.09c-1.686-0.728-3.009-1.821-3.968-3.282
		C245.911,763.761,245.406,762.109,245.356,760.267z"/>
	<path d="M277.098,769.123l-7.315-27.567h3.742l4.193,18.071c0.452,1.893,0.84,3.773,1.166,5.642
		c0.702-2.946,1.116-4.645,1.241-5.097l5.246-18.616h4.4l3.949,13.953c0.99,3.46,1.705,6.713,2.144,9.76
		c0.351-1.743,0.809-3.742,1.373-5.999l4.325-17.714h3.667l-7.559,27.567h-3.517l-5.811-21.004
		c-0.489-1.755-0.777-2.833-0.865-3.234c-0.289,1.266-0.558,2.344-0.809,3.234l-5.848,21.004H277.098z"/>
	<path d="M309.253,769.123v-27.567h3.648v27.567H309.253z"/>
	<path d="M326.346,769.123V744.81h-9.083v-3.254h21.85v3.254h-9.12v24.313H326.346z"/>
	<path d="M362.525,759.458l3.647,0.921c-0.765,2.996-2.141,5.281-4.127,6.854c-1.987,1.573-4.416,2.359-7.287,2.359
		c-2.971,0-5.388-0.604-7.249-1.814c-1.861-1.209-3.278-2.962-4.25-5.256s-1.457-4.757-1.457-7.39c0-2.871,0.548-5.375,1.646-7.513
		c1.097-2.137,2.657-3.761,4.683-4.87c2.024-1.109,4.252-1.664,6.685-1.664c2.758,0,5.077,0.702,6.957,2.106
		c1.881,1.404,3.19,3.378,3.931,5.923l-3.592,0.847c-0.64-2.006-1.567-3.467-2.783-4.382s-2.745-1.373-4.588-1.373
		c-2.119,0-3.89,0.508-5.313,1.523s-2.423,2.379-2.999,4.09c-0.577,1.711-0.865,3.476-0.865,5.294c0,2.344,0.342,4.391,1.025,6.14
		c0.683,1.748,1.745,3.056,3.187,3.92c1.441,0.865,3.003,1.298,4.683,1.298c2.043,0,3.773-0.589,5.19-1.768
		C361.064,763.525,362.023,761.777,362.525,759.458z"/>
	<path d="M370.78,769.123v-27.567h3.647v11.32h14.329v-11.32h3.648v27.567h-3.648v-12.994h-14.329v12.994H370.78z"/>
</g>
</svg>
