<?xml version="1.0" standalone="no"?>
<!DOCTYPE svg PUBLIC "-//W3C//DTD SVG 20010904//EN"
 "http://www.w3.org/TR/2001/REC-SVG-20010904/DTD/svg10.dtd">
<svg version="1.0" xmlns="http://www.w3.org/2000/svg"
 width="538.000000pt" height="429.000000pt" viewBox="0 0 538.000000 429.000000"
 preserveAspectRatio="xMidYMid meet">
<metadata>
Created by potrace 1.13, written by Peter Selinger 2001-2015
</metadata>
<g transform="translate(0.000000,429.000000) scale(0.100000,-0.100000)"
fill="#000000" stroke="none">
<path d="M20 4168 c0 -68 -1 -409 -1 -758 0 -479 -3 -637 -12 -643 -9 -7 -9
-10 1 -14 9 -4 12 -205 12 -958 0 -922 1 -955 19 -964 10 -6 21 -8 24 -5 3 3
76 5 163 4 595 -5 2422 0 2439 6 8 4 15 17 15 29 0 13 4 26 9 29 4 3 4 31 -1
63 -9 57 -8 217 2 226 3 3 583 8 1290 11 707 2 1297 8 1313 12 l27 6 -2 202
-3 201 -305 7 c-168 4 -759 9 -1315 10 l-1010 3 -3 165 c-2 91 0 189 3 217 l6
53 842 1 c463 1 851 1 862 1 11 0 99 0 195 0 96 0 299 2 450 6 l275 7 3 1080
c1 594 0 1090 -3 1103 l-5 22 -2645 0 -2645 0 0 -122z m1390 -128 c709 -87
1131 -843 830 -1487 -146 -312 -425 -530 -760 -594 -84 -15 -276 -15 -360 0
-336 64 -614 281 -760 594 -104 222 -125 483 -58 731 25 93 105 256 168 341
164 222 433 380 705 414 100 12 139 12 235 1z"/>
<path d="M1610 650 c-8 -5 -46 -10 -83 -10 l-68 0 -31 -67 c-18 -38 -34 -70
-37 -73 -3 -3 -6 -9 -6 -15 0 -24 -49 -123 -59 -119 -7 3 -13 -7 -14 -22 -2
-31 -67 -186 -112 -268 -16 -31 -30 -61 -30 -67 0 -6 33 -9 87 -7 l88 3 26 70
27 70 140 1 140 1 32 -73 32 -74 79 0 c44 0 79 4 79 9 0 12 -42 110 -150 351
-47 107 -93 214 -100 238 -7 23 -17 42 -22 42 -5 0 -6 5 -3 10 8 12 4 12 -15
0z m1 -342 l19 -48 -91 0 c-83 0 -91 2 -85 18 4 9 24 59 44 110 l37 93 28 -62
c16 -35 37 -85 48 -111z"/>
<path d="M5040 652 c0 -5 -30 -12 -67 -14 -121 -9 -208 -71 -261 -188 -22 -45
-26 -70 -26 -145 -1 -118 26 -176 118 -252 l63 -53 144 0 c130 0 149 3 194 24
60 27 114 80 149 143 23 41 26 56 26 150 0 95 -2 108 -30 162 -35 70 -94 124
-164 150 -62 22 -146 36 -146 23z m89 -145 c9 -8 24 -17 34 -20 9 -4 17 -13
17 -22 0 -8 4 -15 9 -15 4 0 14 -20 21 -45 15 -54 8 -161 -14 -202 -14 -28
-56 -72 -56 -59 0 3 -11 -1 -25 -10 -14 -9 -28 -14 -31 -11 -3 3 -20 1 -37 -4
-19 -5 -45 -5 -67 1 -45 12 -106 53 -102 68 1 7 -2 12 -8 12 -13 0 -30 67 -30
121 0 57 24 141 47 162 44 40 76 48 152 43 41 -3 82 -12 90 -19z"/>
<path d="M0 326 l0 -326 85 0 85 0 0 135 0 135 145 0 145 0 0 60 c0 69 16 62
-141 60 -53 -1 -108 2 -123 6 -26 6 -27 9 -24 68 l3 61 150 1 c83 1 156 2 163
3 9 1 12 17 10 59 l-3 57 -65 -1 c-263 -5 -411 -4 -420 1 -7 4 -10 -102 -10
-319z"/>
<path d="M2030 325 l0 -325 70 0 70 0 0 208 c0 115 3 212 7 216 4 3 34 -89 67
-206 l61 -213 75 -3 75 -3 49 173 c26 95 56 198 66 228 l18 55 1 -227 1 -228
70 0 70 0 0 320 0 321 -111 -3 -111 -3 -43 -134 c-24 -74 -51 -163 -61 -198
-9 -35 -20 -60 -24 -56 -4 4 -31 87 -59 183 -73 247 -51 220 -181 220 l-110 0
0 -325z"/>
<path d="M3605 487 c0 -89 -2 -180 -5 -201 l-5 -40 -70 101 c-38 55 -101 144
-138 197 l-68 96 -75 0 -74 0 0 -320 0 -320 75 0 75 0 0 196 0 196 70 -98 c38
-55 84 -121 102 -147 18 -26 50 -70 71 -98 l39 -49 74 0 74 0 0 325 0 325 -72
0 -73 0 0 -163z"/>
<path d="M4113 636 c-99 -31 -183 -112 -209 -202 -35 -122 5 -286 89 -360 71
-63 109 -74 250 -74 139 0 210 16 288 65 32 21 39 31 40 58 2 51 -1 108 -7
170 l-6 57 -154 0 -154 0 0 -60 0 -60 81 0 80 0 -3 -32 c-3 -28 -10 -37 -53
-58 -107 -54 -236 -22 -283 70 -20 39 -23 56 -20 133 3 68 9 93 25 115 46 62
122 90 210 77 45 -6 71 -25 105 -74 16 -23 18 -23 88 -11 70 12 71 13 65 38
-15 61 -84 125 -161 148 -58 17 -214 17 -271 0z"/>
<path d="M600 470 c0 -93 -1 -236 -1 -317 l0 -148 265 -3 265 -2 -2 60 -2 60
-80 1 c-44 0 -126 0 -182 -1 l-103 -1 0 260 0 261 -80 0 -80 0 0 -170z"/>
<path d="M2870 320 l0 -320 74 0 74 0 6 163 c4 89 5 233 4 319 l-3 158 -77 0
-78 0 0 -320z"/>
</g>
</svg>
